<?xml version="1.0" encoding="UTF-8"?>
<svg xmlns="http://www.w3.org/2000/svg" width="34" height="35" viewBox="0 0 34 35" fill="none"><path d="M32.5979 23.908C29.983 29.9333 23.9842 34.147 16.999 34.147C16.7147 34.147 16.4325 34.1405 16.1525 34.1255C7.15543 33.6838 0 26.2496 0 17.1416C0 15.6185 0.204625 14.1429 0.581566 12.7383C0.964969 12.329 1.50346 12.0727 2.10225 12.0727C3.26323 12.0727 4.20882 13.027 4.20882 14.1967V14.8796C4.20882 14.8904 4.20451 14.9033 4.20451 14.9119V20.0842C4.20451 22.2234 5.93844 23.964 8.0687 23.964C10.199 23.964 11.9329 22.2234 11.9329 20.0842V15.9115C11.9329 15.8964 11.9286 15.8856 11.9286 15.8706V14.1946C11.9286 13.0248 12.8742 12.0705 14.0351 12.0705C15.1961 12.0705 16.1417 13.0248 16.1417 14.1946V20.0821C16.1417 22.2212 17.8735 23.9618 20.0037 23.9618C22.134 23.9618 23.8679 22.2212 23.8679 20.0821V15.9093C23.8679 15.8943 23.8636 15.8835 23.8636 15.8684V14.1924C23.8636 13.0227 24.8092 12.0684 25.9702 12.0684C27.1312 12.0684 28.0767 13.0227 28.0767 14.1924V14.3303C28.0767 14.3303 28.0767 14.3497 28.0767 14.3605V20.0799C28.0767 22.0489 29.5457 23.6818 31.4391 23.9274C31.6006 23.9489 31.7686 23.9597 31.9366 23.9597C32.165 23.9597 32.3868 23.936 32.6065 23.8994" fill="#073C8C"/><path d="M33.9997 17.146C33.9997 18.6862 33.7908 20.1726 33.4096 21.5923C33.4096 21.5923 33.4074 21.5966 33.4074 21.5987C33.4053 21.5987 33.4031 21.603 33.4009 21.603C33.0197 21.98 32.5028 22.2127 31.9298 22.2127C30.7688 22.2127 29.8232 21.2584 29.8232 20.0886V18.8672C29.8232 18.8543 29.8232 18.8456 29.8232 18.837V14.2011C29.8232 12.062 28.0915 10.3192 25.9612 10.3192C23.8309 10.3192 22.097 12.062 22.097 14.2011V18.9404C22.097 18.9512 22.1013 18.9641 22.1013 18.9771V20.0886C22.1013 21.2584 21.1557 22.2127 19.9948 22.2127C18.8338 22.2127 17.8882 21.2584 17.8882 20.0886V14.2011C17.8882 12.062 16.1564 10.3192 14.0262 10.3192C11.8959 10.3192 10.162 12.062 10.162 14.2011V18.9404C10.162 18.9512 10.1663 18.9663 10.1663 18.9771V20.0886C10.1663 21.2584 9.22069 22.2127 8.05971 22.2127C6.89873 22.2127 5.95315 21.2584 5.95315 20.0886V19.4057C5.95315 19.395 5.95745 19.3842 5.95745 19.3734V14.2033C5.95745 12.0641 4.22568 10.3257 2.09542 10.3214C1.85633 10.3214 1.6237 10.3451 1.39539 10.3882C4.01028 4.36064 10.009 0.146973 16.9965 0.146973C17.0891 0.146973 17.1774 0.146973 17.27 0.146973C26.532 0.29346 33.9976 7.84833 33.9976 17.146" fill="#308BE3"/></svg>